<svg id="hex" xml:space="preserve" xmlns="http://www.w3.org/2000/svg" version="1.1" xmlns:xlink="http://www.w3.org/1999/xlink" xmlns:svgjs="http://svgjs.com/svgjs" width="1920" height="1080" preserveAspectRatio="none" viewBox="0 0 1920 1080"><g mask="url(&quot;#SvgjsMask6182&quot;)" fill="none"><rect width="1920" height="1080" x="0" y="0" fill="url(#SvgjsLinearGradient6183)"></rect><path id="h_path1" d="M445.75 1185.04L618.96 1285.04L618.96 1485.04L445.75 1585.04L272.54 1485.04L272.54 1285.04zM792.17 -14.96L965.38 85.04L965.38 285.04L792.17 385.04L618.96 285.04L618.96 85.04zM965.38 285.04L1138.59 385.04L1138.59 585.04L965.38 685.04L792.17 585.04L792.17 385.04zM792.17 585.04L965.38 685.04L965.38 885.04L792.17 985.04L618.96 885.04L618.96 685.04zM1138.59 585.04L1311.8 685.04L1311.8 885.04L1138.59 985.04L965.38 885.04L965.38 685.04zM1658.22 285.04L1831.43 385.04L1831.43 585.04L1658.22 685.04L1485.01 585.04L1485.01 385.04zM1831.43 -14.96L2004.64 85.04L2004.64 285.04L1831.43 385.04L1658.22 285.04L1658.22 85.04z" stroke-width="2"></path><path id="h_path2" d="M425.75 1185.04 a20 20 0 1 0 40 0 a20 20 0 1 0 -40 0zM598.96 1285.04 a20 20 0 1 0 40 0 a20 20 0 1 0 -40 0zM598.96 1485.04 a20 20 0 1 0 40 0 a20 20 0 1 0 -40 0zM425.75 1585.04 a20 20 0 1 0 40 0 a20 20 0 1 0 -40 0zM252.54 1485.04 a20 20 0 1 0 40 0 a20 20 0 1 0 -40 0zM252.54 1285.04 a20 20 0 1 0 40 0 a20 20 0 1 0 -40 0zM772.17 -14.96 a20 20 0 1 0 40 0 a20 20 0 1 0 -40 0zM945.38 85.04 a20 20 0 1 0 40 0 a20 20 0 1 0 -40 0zM945.38 285.04 a20 20 0 1 0 40 0 a20 20 0 1 0 -40 0zM772.17 385.04 a20 20 0 1 0 40 0 a20 20 0 1 0 -40 0zM598.96 285.04 a20 20 0 1 0 40 0 a20 20 0 1 0 -40 0zM598.96 85.04 a20 20 0 1 0 40 0 a20 20 0 1 0 -40 0zM1118.59 385.04 a20 20 0 1 0 40 0 a20 20 0 1 0 -40 0zM1118.59 585.04 a20 20 0 1 0 40 0 a20 20 0 1 0 -40 0zM945.38 685.04 a20 20 0 1 0 40 0 a20 20 0 1 0 -40 0zM772.17 585.04 a20 20 0 1 0 40 0 a20 20 0 1 0 -40 0zM945.38 885.04 a20 20 0 1 0 40 0 a20 20 0 1 0 -40 0zM772.17 985.04 a20 20 0 1 0 40 0 a20 20 0 1 0 -40 0zM598.96 885.04 a20 20 0 1 0 40 0 a20 20 0 1 0 -40 0zM598.96 685.04 a20 20 0 1 0 40 0 a20 20 0 1 0 -40 0zM1291.8 685.04 a20 20 0 1 0 40 0 a20 20 0 1 0 -40 0zM1291.8 885.04 a20 20 0 1 0 40 0 a20 20 0 1 0 -40 0zM1118.59 985.04 a20 20 0 1 0 40 0 a20 20 0 1 0 -40 0zM1638.22 285.04 a20 20 0 1 0 40 0 a20 20 0 1 0 -40 0zM1811.43 385.04 a20 20 0 1 0 40 0 a20 20 0 1 0 -40 0zM1811.43 585.04 a20 20 0 1 0 40 0 a20 20 0 1 0 -40 0zM1638.22 685.04 a20 20 0 1 0 40 0 a20 20 0 1 0 -40 0zM1465.01 585.04 a20 20 0 1 0 40 0 a20 20 0 1 0 -40 0zM1465.01 385.04 a20 20 0 1 0 40 0 a20 20 0 1 0 -40 0zM1811.43 -14.96 a20 20 0 1 0 40 0 a20 20 0 1 0 -40 0zM1984.64 85.04 a20 20 0 1 0 40 0 a20 20 0 1 0 -40 0zM1984.64 285.04 a20 20 0 1 0 40 0 a20 20 0 1 0 -40 0zM1638.22 85.04 a20 20 0 1 0 40 0 a20 20 0 1 0 -40 0z"></path><path id="h_path3" d="M71.44 248.02L124.27 278.52L124.27 339.52L71.44 370.02L18.61 339.52L18.61 278.52zM18.61 339.52L71.44 370.02L71.44 431.02L18.61 461.52L-34.22 431.02L-34.22 370.02zM18.61 705.52L71.44 736.02L71.44 797.02L18.61 827.52L-34.22 797.02L-34.22 736.02zM124.27 156.52L177.1 187.02L177.1 248.02L124.27 278.52L71.44 248.02L71.44 187.02zM124.27 522.52L177.1 553.02L177.1 614.02L124.27 644.52L71.44 614.02L71.44 553.02zM229.93 339.52L282.76 370.02L282.76 431.02L229.93 461.52L177.1 431.02L177.1 370.02zM282.76 431.02L335.58 461.52L335.58 522.52L282.76 553.02L229.93 522.52L229.93 461.52zM388.41 65.02L441.24 95.52L441.24 156.52L388.41 187.02L335.58 156.52L335.58 95.52zM494.07 797.02L546.9 827.52L546.9 888.52L494.07 919.02L441.24 888.52L441.24 827.52zM546.9 -26.48L599.73 4.02L599.73 65.02L546.9 95.52L494.07 65.02L494.07 4.02zM546.9 705.52L599.73 736.02L599.73 797.02L546.9 827.52L494.07 797.02L494.07 736.02zM652.56 -26.48L705.39 4.02L705.39 65.02L652.56 95.52L599.73 65.02L599.73 4.02zM705.39 248.02L758.22 278.52L758.22 339.52L705.39 370.02L652.56 339.52L652.56 278.52zM705.39 797.02L758.22 827.52L758.22 888.52L705.39 919.02L652.56 888.52L652.56 827.52zM758.22 339.52L811.05 370.02L811.05 431.02L758.22 461.52L705.39 431.02L705.39 370.02zM811.05 614.02L863.87 644.52L863.87 705.52L811.05 736.02L758.22 705.52L758.22 644.52zM758.22 705.52L811.05 736.02L811.05 797.02L758.22 827.52L705.39 797.02L705.39 736.02zM758.22 1071.52L811.05 1102.02L811.05 1163.02L758.22 1193.52L705.39 1163.02L705.39 1102.02zM863.87 339.52L916.7 370.02L916.7 431.02L863.87 461.52L811.05 431.02L811.05 370.02zM916.7 431.02L969.53 461.52L969.53 522.52L916.7 553.02L863.87 522.52L863.87 461.52zM969.53 -26.48L1022.36 4.02L1022.36 65.02L969.53 95.52L916.7 65.02L916.7 4.02zM1075.19 156.52L1128.02 187.02L1128.02 248.02L1075.19 278.52L1022.36 248.02L1022.36 187.02zM1128.02 614.02L1180.85 644.52L1180.85 705.52L1128.02 736.02L1075.19 705.52L1075.19 644.52zM1128.02 980.02L1180.85 1010.52L1180.85 1071.52L1128.02 1102.02L1075.19 1071.52L1075.19 1010.52zM1180.85 339.52L1233.68 370.02L1233.68 431.02L1180.85 461.52L1128.02 431.02L1128.02 370.02zM1444.99 614.02L1497.82 644.52L1497.82 705.52L1444.99 736.02L1392.17 705.52L1392.17 644.52zM1392.17 705.52L1444.99 736.02L1444.99 797.02L1392.17 827.52L1339.34 797.02L1339.34 736.02zM1497.82 -26.48L1550.65 4.02L1550.65 65.02L1497.82 95.52L1444.99 65.02L1444.99 4.02zM1603.48 -26.48L1656.31 4.02L1656.31 65.02L1603.48 95.52L1550.65 65.02L1550.65 4.02zM1603.48 705.52L1656.31 736.02L1656.31 797.02L1603.48 827.52L1550.65 797.02L1550.65 736.02zM1709.14 -26.48L1761.97 4.02L1761.97 65.02L1709.14 95.52L1656.31 65.02L1656.31 4.02zM1709.14 156.52L1761.97 187.02L1761.97 248.02L1709.14 278.52L1656.31 248.02L1656.31 187.02zM1761.97 797.02L1814.8 827.52L1814.8 888.52L1761.97 919.02L1709.14 888.52L1709.14 827.52zM1761.97 980.02L1814.8 1010.52L1814.8 1071.52L1761.97 1102.02L1709.14 1071.52L1709.14 1010.52zM1814.8 -26.48L1867.63 4.02L1867.63 65.02L1814.8 95.52L1761.97 65.02L1761.97 4.02zM1867.63 431.02L1920.46 461.52L1920.46 522.52L1867.63 553.02L1814.8 522.52L1814.8 461.52zM1814.8 888.52L1867.63 919.02L1867.63 980.02L1814.8 1010.52L1761.97 980.02L1761.97 919.02zM1973.28 248.02L2026.11 278.52L2026.11 339.52L1973.28 370.02L1920.46 339.52L1920.46 278.52zM1973.28 431.02L2026.11 461.52L2026.11 522.52L1973.28 553.02L1920.46 522.52L1920.46 461.52zM1920.46 522.52L1973.28 553.02L1973.28 614.02L1920.46 644.52L1867.63 614.02L1867.63 553.02zM1920.46 705.52L1973.28 736.02L1973.28 797.02L1920.46 827.52L1867.63 797.02L1867.63 736.02zM1920.46 888.52L1973.28 919.02L1973.28 980.02L1920.46 1010.52L1867.63 980.02L1867.63 919.02zM1973.28 980.02L2026.11 1010.52L2026.11 1071.52L1973.28 1102.02L1920.46 1071.52L1920.46 1010.52z" stroke="url(#SvgjsLinearGradient6184)" stroke-width="2"></path><path id="h_path4" d="M65.34 248.02 a6.1 6.1 0 1 0 12.2 0 a6.1 6.1 0 1 0 -12.2 0zM118.17 278.52 a6.1 6.1 0 1 0 12.2 0 a6.1 6.1 0 1 0 -12.2 0zM118.17 339.52 a6.1 6.1 0 1 0 12.2 0 a6.1 6.1 0 1 0 -12.2 0zM65.34 370.02 a6.1 6.1 0 1 0 12.2 0 a6.1 6.1 0 1 0 -12.2 0zM12.51 339.52 a6.1 6.1 0 1 0 12.2 0 a6.1 6.1 0 1 0 -12.2 0zM12.51 278.52 a6.1 6.1 0 1 0 12.2 0 a6.1 6.1 0 1 0 -12.2 0zM65.34 431.02 a6.1 6.1 0 1 0 12.2 0 a6.1 6.1 0 1 0 -12.2 0zM12.51 461.52 a6.1 6.1 0 1 0 12.2 0 a6.1 6.1 0 1 0 -12.2 0zM-40.32 431.02 a6.1 6.1 0 1 0 12.2 0 a6.1 6.1 0 1 0 -12.2 0zM-40.32 370.02 a6.1 6.1 0 1 0 12.2 0 a6.1 6.1 0 1 0 -12.2 0zM12.51 705.52 a6.1 6.1 0 1 0 12.2 0 a6.1 6.1 0 1 0 -12.2 0zM65.34 736.02 a6.1 6.1 0 1 0 12.2 0 a6.1 6.1 0 1 0 -12.2 0zM65.34 797.02 a6.1 6.1 0 1 0 12.2 0 a6.1 6.1 0 1 0 -12.2 0zM12.51 827.52 a6.1 6.1 0 1 0 12.2 0 a6.1 6.1 0 1 0 -12.2 0zM-40.32 797.02 a6.1 6.1 0 1 0 12.2 0 a6.1 6.1 0 1 0 -12.2 0zM-40.32 736.02 a6.1 6.1 0 1 0 12.2 0 a6.1 6.1 0 1 0 -12.2 0zM118.17 156.52 a6.1 6.1 0 1 0 12.2 0 a6.1 6.1 0 1 0 -12.2 0zM171 187.02 a6.1 6.1 0 1 0 12.2 0 a6.1 6.1 0 1 0 -12.2 0zM171 248.02 a6.1 6.1 0 1 0 12.2 0 a6.1 6.1 0 1 0 -12.2 0zM65.34 187.02 a6.1 6.1 0 1 0 12.2 0 a6.1 6.1 0 1 0 -12.2 0zM118.17 522.52 a6.1 6.1 0 1 0 12.2 0 a6.1 6.1 0 1 0 -12.2 0zM171 553.02 a6.1 6.1 0 1 0 12.2 0 a6.1 6.1 0 1 0 -12.2 0zM171 614.02 a6.1 6.1 0 1 0 12.2 0 a6.1 6.1 0 1 0 -12.2 0zM118.17 644.52 a6.1 6.1 0 1 0 12.2 0 a6.1 6.1 0 1 0 -12.2 0zM65.34 614.02 a6.1 6.1 0 1 0 12.2 0 a6.1 6.1 0 1 0 -12.2 0zM65.34 553.02 a6.1 6.1 0 1 0 12.2 0 a6.1 6.1 0 1 0 -12.2 0zM223.83 339.52 a6.1 6.1 0 1 0 12.2 0 a6.1 6.1 0 1 0 -12.2 0zM276.66 370.02 a6.1 6.1 0 1 0 12.2 0 a6.1 6.1 0 1 0 -12.2 0zM276.66 431.02 a6.1 6.1 0 1 0 12.2 0 a6.1 6.1 0 1 0 -12.2 0zM223.83 461.52 a6.1 6.1 0 1 0 12.2 0 a6.1 6.1 0 1 0 -12.2 0zM171 431.02 a6.1 6.1 0 1 0 12.2 0 a6.1 6.1 0 1 0 -12.2 0zM171 370.02 a6.1 6.1 0 1 0 12.2 0 a6.1 6.1 0 1 0 -12.2 0zM329.48 461.52 a6.1 6.1 0 1 0 12.2 0 a6.1 6.1 0 1 0 -12.2 0zM329.48 522.52 a6.1 6.1 0 1 0 12.2 0 a6.1 6.1 0 1 0 -12.2 0zM276.66 553.02 a6.1 6.1 0 1 0 12.2 0 a6.1 6.1 0 1 0 -12.2 0zM223.83 522.52 a6.1 6.1 0 1 0 12.2 0 a6.1 6.1 0 1 0 -12.2 0zM382.31 65.02 a6.1 6.1 0 1 0 12.2 0 a6.1 6.1 0 1 0 -12.2 0zM435.14 95.52 a6.1 6.1 0 1 0 12.2 0 a6.1 6.1 0 1 0 -12.2 0zM435.14 156.52 a6.1 6.1 0 1 0 12.2 0 a6.1 6.1 0 1 0 -12.2 0zM382.31 187.02 a6.1 6.1 0 1 0 12.2 0 a6.1 6.1 0 1 0 -12.2 0zM329.48 156.52 a6.1 6.1 0 1 0 12.2 0 a6.1 6.1 0 1 0 -12.2 0zM329.48 95.52 a6.1 6.1 0 1 0 12.2 0 a6.1 6.1 0 1 0 -12.2 0zM487.97 797.02 a6.1 6.1 0 1 0 12.2 0 a6.1 6.1 0 1 0 -12.2 0zM540.8 827.52 a6.1 6.1 0 1 0 12.2 0 a6.1 6.1 0 1 0 -12.2 0zM540.8 888.52 a6.1 6.1 0 1 0 12.2 0 a6.1 6.1 0 1 0 -12.2 0zM487.97 919.02 a6.1 6.1 0 1 0 12.2 0 a6.1 6.1 0 1 0 -12.2 0zM435.14 888.52 a6.1 6.1 0 1 0 12.2 0 a6.1 6.1 0 1 0 -12.2 0zM435.14 827.52 a6.1 6.1 0 1 0 12.2 0 a6.1 6.1 0 1 0 -12.2 0zM540.8 -26.48 a6.1 6.1 0 1 0 12.2 0 a6.1 6.1 0 1 0 -12.2 0zM593.63 4.02 a6.1 6.1 0 1 0 12.2 0 a6.1 6.1 0 1 0 -12.2 0zM593.63 65.02 a6.1 6.1 0 1 0 12.2 0 a6.1 6.1 0 1 0 -12.2 0zM540.8 95.52 a6.1 6.1 0 1 0 12.2 0 a6.1 6.1 0 1 0 -12.2 0zM487.97 65.02 a6.1 6.1 0 1 0 12.2 0 a6.1 6.1 0 1 0 -12.2 0zM487.97 4.02 a6.1 6.1 0 1 0 12.2 0 a6.1 6.1 0 1 0 -12.2 0zM540.8 705.52 a6.1 6.1 0 1 0 12.2 0 a6.1 6.1 0 1 0 -12.2 0zM593.63 736.02 a6.1 6.1 0 1 0 12.2 0 a6.1 6.1 0 1 0 -12.2 0zM593.63 797.02 a6.1 6.1 0 1 0 12.2 0 a6.1 6.1 0 1 0 -12.2 0zM487.97 736.02 a6.1 6.1 0 1 0 12.2 0 a6.1 6.1 0 1 0 -12.2 0zM646.46 -26.48 a6.1 6.1 0 1 0 12.2 0 a6.1 6.1 0 1 0 -12.2 0zM699.29 4.02 a6.1 6.1 0 1 0 12.2 0 a6.1 6.1 0 1 0 -12.2 0zM699.29 65.02 a6.1 6.1 0 1 0 12.2 0 a6.1 6.1 0 1 0 -12.2 0zM646.46 95.52 a6.1 6.1 0 1 0 12.2 0 a6.1 6.1 0 1 0 -12.2 0zM699.29 248.02 a6.1 6.1 0 1 0 12.2 0 a6.1 6.1 0 1 0 -12.2 0zM752.12 278.52 a6.1 6.1 0 1 0 12.2 0 a6.1 6.1 0 1 0 -12.2 0zM752.12 339.52 a6.1 6.1 0 1 0 12.2 0 a6.1 6.1 0 1 0 -12.2 0zM699.29 370.02 a6.1 6.1 0 1 0 12.2 0 a6.1 6.1 0 1 0 -12.2 0zM646.46 339.52 a6.1 6.1 0 1 0 12.2 0 a6.1 6.1 0 1 0 -12.2 0zM646.46 278.52 a6.1 6.1 0 1 0 12.2 0 a6.1 6.1 0 1 0 -12.2 0zM699.29 797.02 a6.1 6.1 0 1 0 12.2 0 a6.1 6.1 0 1 0 -12.2 0zM752.12 827.52 a6.1 6.1 0 1 0 12.2 0 a6.1 6.1 0 1 0 -12.2 0zM752.12 888.52 a6.1 6.1 0 1 0 12.2 0 a6.1 6.1 0 1 0 -12.2 0zM699.29 919.02 a6.1 6.1 0 1 0 12.2 0 a6.1 6.1 0 1 0 -12.2 0zM646.46 888.52 a6.1 6.1 0 1 0 12.2 0 a6.1 6.1 0 1 0 -12.2 0zM646.46 827.52 a6.1 6.1 0 1 0 12.2 0 a6.1 6.1 0 1 0 -12.2 0zM804.95 370.02 a6.1 6.1 0 1 0 12.2 0 a6.1 6.1 0 1 0 -12.2 0zM804.95 431.02 a6.1 6.1 0 1 0 12.2 0 a6.1 6.1 0 1 0 -12.2 0zM752.12 461.52 a6.1 6.1 0 1 0 12.2 0 a6.1 6.1 0 1 0 -12.2 0zM699.29 431.02 a6.1 6.1 0 1 0 12.2 0 a6.1 6.1 0 1 0 -12.2 0zM804.95 614.02 a6.1 6.1 0 1 0 12.2 0 a6.1 6.1 0 1 0 -12.2 0zM857.77 644.52 a6.1 6.1 0 1 0 12.2 0 a6.1 6.1 0 1 0 -12.2 0zM857.77 705.52 a6.1 6.1 0 1 0 12.2 0 a6.1 6.1 0 1 0 -12.2 0zM804.95 736.02 a6.1 6.1 0 1 0 12.2 0 a6.1 6.1 0 1 0 -12.2 0zM752.12 705.52 a6.1 6.1 0 1 0 12.2 0 a6.1 6.1 0 1 0 -12.2 0zM752.12 644.52 a6.1 6.1 0 1 0 12.2 0 a6.1 6.1 0 1 0 -12.2 0zM804.95 797.02 a6.1 6.1 0 1 0 12.2 0 a6.1 6.1 0 1 0 -12.2 0zM699.29 736.02 a6.1 6.1 0 1 0 12.2 0 a6.1 6.1 0 1 0 -12.2 0zM752.12 1071.52 a6.1 6.1 0 1 0 12.2 0 a6.1 6.1 0 1 0 -12.2 0zM804.95 1102.02 a6.1 6.1 0 1 0 12.2 0 a6.1 6.1 0 1 0 -12.2 0zM804.95 1163.02 a6.1 6.1 0 1 0 12.2 0 a6.1 6.1 0 1 0 -12.2 0zM752.12 1193.52 a6.1 6.1 0 1 0 12.2 0 a6.1 6.1 0 1 0 -12.2 0zM699.29 1163.02 a6.1 6.1 0 1 0 12.2 0 a6.1 6.1 0 1 0 -12.2 0zM699.29 1102.02 a6.1 6.1 0 1 0 12.2 0 a6.1 6.1 0 1 0 -12.2 0zM857.77 339.52 a6.1 6.1 0 1 0 12.2 0 a6.1 6.1 0 1 0 -12.2 0zM910.6 370.02 a6.1 6.1 0 1 0 12.2 0 a6.1 6.1 0 1 0 -12.2 0zM910.6 431.02 a6.1 6.1 0 1 0 12.2 0 a6.1 6.1 0 1 0 -12.2 0zM857.77 461.52 a6.1 6.1 0 1 0 12.2 0 a6.1 6.1 0 1 0 -12.2 0zM963.43 461.52 a6.1 6.1 0 1 0 12.2 0 a6.1 6.1 0 1 0 -12.2 0zM963.43 522.52 a6.1 6.1 0 1 0 12.2 0 a6.1 6.1 0 1 0 -12.2 0zM910.6 553.02 a6.1 6.1 0 1 0 12.2 0 a6.1 6.1 0 1 0 -12.2 0zM857.77 522.52 a6.1 6.1 0 1 0 12.2 0 a6.1 6.1 0 1 0 -12.2 0zM963.43 -26.48 a6.1 6.1 0 1 0 12.2 0 a6.1 6.1 0 1 0 -12.2 0zM1016.26 4.02 a6.1 6.1 0 1 0 12.2 0 a6.1 6.1 0 1 0 -12.2 0zM1016.26 65.02 a6.1 6.1 0 1 0 12.2 0 a6.1 6.1 0 1 0 -12.2 0zM963.43 95.52 a6.1 6.1 0 1 0 12.2 0 a6.1 6.1 0 1 0 -12.2 0zM910.6 65.02 a6.1 6.1 0 1 0 12.2 0 a6.1 6.1 0 1 0 -12.2 0zM910.6 4.02 a6.1 6.1 0 1 0 12.2 0 a6.1 6.1 0 1 0 -12.2 0zM1069.09 156.52 a6.1 6.1 0 1 0 12.2 0 a6.1 6.1 0 1 0 -12.2 0zM1121.92 187.02 a6.1 6.1 0 1 0 12.2 0 a6.1 6.1 0 1 0 -12.2 0zM1121.92 248.02 a6.1 6.1 0 1 0 12.2 0 a6.1 6.1 0 1 0 -12.2 0zM1069.09 278.52 a6.1 6.1 0 1 0 12.2 0 a6.1 6.1 0 1 0 -12.2 0zM1016.26 248.02 a6.1 6.1 0 1 0 12.2 0 a6.1 6.1 0 1 0 -12.2 0zM1016.26 187.02 a6.1 6.1 0 1 0 12.2 0 a6.1 6.1 0 1 0 -12.2 0zM1121.92 614.02 a6.1 6.1 0 1 0 12.2 0 a6.1 6.1 0 1 0 -12.2 0zM1174.75 644.52 a6.1 6.1 0 1 0 12.2 0 a6.1 6.1 0 1 0 -12.2 0zM1174.75 705.52 a6.1 6.1 0 1 0 12.2 0 a6.1 6.1 0 1 0 -12.2 0zM1121.92 736.02 a6.1 6.1 0 1 0 12.2 0 a6.1 6.1 0 1 0 -12.2 0zM1069.09 705.52 a6.1 6.1 0 1 0 12.2 0 a6.1 6.1 0 1 0 -12.2 0zM1069.09 644.52 a6.1 6.1 0 1 0 12.2 0 a6.1 6.1 0 1 0 -12.2 0zM1121.92 980.02 a6.1 6.1 0 1 0 12.2 0 a6.1 6.1 0 1 0 -12.2 0zM1174.75 1010.52 a6.1 6.1 0 1 0 12.2 0 a6.1 6.1 0 1 0 -12.2 0zM1174.75 1071.52 a6.1 6.1 0 1 0 12.2 0 a6.1 6.1 0 1 0 -12.2 0zM1121.92 1102.02 a6.1 6.1 0 1 0 12.2 0 a6.1 6.1 0 1 0 -12.2 0zM1069.09 1071.52 a6.1 6.1 0 1 0 12.2 0 a6.1 6.1 0 1 0 -12.2 0zM1069.09 1010.52 a6.1 6.1 0 1 0 12.2 0 a6.1 6.1 0 1 0 -12.2 0zM1174.75 339.52 a6.1 6.1 0 1 0 12.2 0 a6.1 6.1 0 1 0 -12.2 0zM1227.58 370.02 a6.1 6.1 0 1 0 12.2 0 a6.1 6.1 0 1 0 -12.2 0zM1227.58 431.02 a6.1 6.1 0 1 0 12.2 0 a6.1 6.1 0 1 0 -12.2 0zM1174.75 461.52 a6.1 6.1 0 1 0 12.2 0 a6.1 6.1 0 1 0 -12.2 0zM1121.92 431.02 a6.1 6.1 0 1 0 12.2 0 a6.1 6.1 0 1 0 -12.2 0zM1121.92 370.02 a6.1 6.1 0 1 0 12.2 0 a6.1 6.1 0 1 0 -12.2 0zM1438.89 614.02 a6.1 6.1 0 1 0 12.2 0 a6.1 6.1 0 1 0 -12.2 0zM1491.72 644.52 a6.1 6.1 0 1 0 12.2 0 a6.1 6.1 0 1 0 -12.2 0zM1491.72 705.52 a6.1 6.1 0 1 0 12.2 0 a6.1 6.1 0 1 0 -12.2 0zM1438.89 736.02 a6.1 6.1 0 1 0 12.2 0 a6.1 6.1 0 1 0 -12.2 0zM1386.07 705.52 a6.1 6.1 0 1 0 12.2 0 a6.1 6.1 0 1 0 -12.2 0zM1386.07 644.52 a6.1 6.1 0 1 0 12.2 0 a6.1 6.1 0 1 0 -12.2 0zM1438.89 797.02 a6.1 6.1 0 1 0 12.2 0 a6.1 6.1 0 1 0 -12.2 0zM1386.07 827.52 a6.1 6.1 0 1 0 12.2 0 a6.1 6.1 0 1 0 -12.2 0zM1333.24 797.02 a6.1 6.1 0 1 0 12.2 0 a6.1 6.1 0 1 0 -12.2 0zM1333.24 736.02 a6.1 6.1 0 1 0 12.2 0 a6.1 6.1 0 1 0 -12.2 0zM1491.72 -26.48 a6.1 6.1 0 1 0 12.2 0 a6.1 6.1 0 1 0 -12.2 0zM1544.55 4.02 a6.1 6.1 0 1 0 12.2 0 a6.1 6.1 0 1 0 -12.2 0zM1544.55 65.02 a6.1 6.1 0 1 0 12.2 0 a6.1 6.1 0 1 0 -12.2 0zM1491.72 95.52 a6.1 6.1 0 1 0 12.2 0 a6.1 6.1 0 1 0 -12.2 0zM1438.89 65.02 a6.1 6.1 0 1 0 12.2 0 a6.1 6.1 0 1 0 -12.2 0zM1438.89 4.02 a6.1 6.1 0 1 0 12.2 0 a6.1 6.1 0 1 0 -12.2 0zM1597.38 -26.48 a6.1 6.1 0 1 0 12.2 0 a6.1 6.1 0 1 0 -12.2 0zM1650.21 4.02 a6.1 6.1 0 1 0 12.2 0 a6.1 6.1 0 1 0 -12.2 0zM1650.21 65.02 a6.1 6.1 0 1 0 12.2 0 a6.1 6.1 0 1 0 -12.2 0zM1597.38 95.52 a6.1 6.1 0 1 0 12.2 0 a6.1 6.1 0 1 0 -12.2 0zM1597.38 705.52 a6.1 6.1 0 1 0 12.2 0 a6.1 6.1 0 1 0 -12.2 0zM1650.21 736.02 a6.1 6.1 0 1 0 12.2 0 a6.1 6.1 0 1 0 -12.2 0zM1650.21 797.02 a6.1 6.1 0 1 0 12.2 0 a6.1 6.1 0 1 0 -12.2 0zM1597.38 827.52 a6.1 6.1 0 1 0 12.2 0 a6.1 6.1 0 1 0 -12.2 0zM1544.55 797.02 a6.1 6.1 0 1 0 12.2 0 a6.1 6.1 0 1 0 -12.2 0zM1544.55 736.02 a6.1 6.1 0 1 0 12.2 0 a6.1 6.1 0 1 0 -12.2 0zM1703.04 -26.48 a6.1 6.1 0 1 0 12.2 0 a6.1 6.1 0 1 0 -12.2 0zM1755.87 4.02 a6.1 6.1 0 1 0 12.2 0 a6.1 6.1 0 1 0 -12.2 0zM1755.87 65.02 a6.1 6.1 0 1 0 12.2 0 a6.1 6.1 0 1 0 -12.2 0zM1703.04 95.52 a6.1 6.1 0 1 0 12.2 0 a6.1 6.1 0 1 0 -12.2 0zM1703.04 156.52 a6.1 6.1 0 1 0 12.2 0 a6.1 6.1 0 1 0 -12.2 0zM1755.87 187.02 a6.1 6.1 0 1 0 12.2 0 a6.1 6.1 0 1 0 -12.2 0zM1755.87 248.02 a6.1 6.1 0 1 0 12.2 0 a6.1 6.1 0 1 0 -12.2 0zM1703.04 278.52 a6.1 6.1 0 1 0 12.2 0 a6.1 6.1 0 1 0 -12.2 0zM1650.21 248.02 a6.1 6.1 0 1 0 12.2 0 a6.1 6.1 0 1 0 -12.2 0zM1650.21 187.02 a6.1 6.1 0 1 0 12.2 0 a6.1 6.1 0 1 0 -12.2 0zM1755.87 797.02 a6.1 6.1 0 1 0 12.2 0 a6.1 6.1 0 1 0 -12.2 0zM1808.7 827.52 a6.1 6.1 0 1 0 12.2 0 a6.1 6.1 0 1 0 -12.2 0zM1808.7 888.52 a6.1 6.1 0 1 0 12.2 0 a6.1 6.1 0 1 0 -12.2 0zM1755.87 919.02 a6.1 6.1 0 1 0 12.2 0 a6.1 6.1 0 1 0 -12.2 0zM1703.04 888.52 a6.1 6.1 0 1 0 12.2 0 a6.1 6.1 0 1 0 -12.2 0zM1703.04 827.52 a6.1 6.1 0 1 0 12.2 0 a6.1 6.1 0 1 0 -12.2 0zM1755.87 980.02 a6.1 6.1 0 1 0 12.2 0 a6.1 6.1 0 1 0 -12.2 0zM1808.7 1010.52 a6.1 6.1 0 1 0 12.2 0 a6.1 6.1 0 1 0 -12.2 0zM1808.7 1071.52 a6.1 6.1 0 1 0 12.2 0 a6.1 6.1 0 1 0 -12.2 0zM1755.87 1102.02 a6.1 6.1 0 1 0 12.2 0 a6.1 6.1 0 1 0 -12.2 0zM1703.04 1071.52 a6.1 6.1 0 1 0 12.2 0 a6.1 6.1 0 1 0 -12.2 0zM1703.04 1010.52 a6.1 6.1 0 1 0 12.2 0 a6.1 6.1 0 1 0 -12.2 0zM1808.7 -26.48 a6.1 6.1 0 1 0 12.2 0 a6.1 6.1 0 1 0 -12.2 0zM1861.53 4.02 a6.1 6.1 0 1 0 12.2 0 a6.1 6.1 0 1 0 -12.2 0zM1861.53 65.02 a6.1 6.1 0 1 0 12.2 0 a6.1 6.1 0 1 0 -12.2 0zM1808.7 95.52 a6.1 6.1 0 1 0 12.2 0 a6.1 6.1 0 1 0 -12.2 0zM1861.53 431.02 a6.1 6.1 0 1 0 12.2 0 a6.1 6.1 0 1 0 -12.2 0zM1914.36 461.52 a6.1 6.1 0 1 0 12.2 0 a6.1 6.1 0 1 0 -12.2 0zM1914.36 522.52 a6.1 6.1 0 1 0 12.2 0 a6.1 6.1 0 1 0 -12.2 0zM1861.53 553.02 a6.1 6.1 0 1 0 12.2 0 a6.1 6.1 0 1 0 -12.2 0zM1808.7 522.52 a6.1 6.1 0 1 0 12.2 0 a6.1 6.1 0 1 0 -12.2 0zM1808.7 461.52 a6.1 6.1 0 1 0 12.2 0 a6.1 6.1 0 1 0 -12.2 0zM1861.53 919.02 a6.1 6.1 0 1 0 12.2 0 a6.1 6.1 0 1 0 -12.2 0zM1861.53 980.02 a6.1 6.1 0 1 0 12.2 0 a6.1 6.1 0 1 0 -12.2 0zM1967.18 248.02 a6.1 6.1 0 1 0 12.2 0 a6.1 6.1 0 1 0 -12.2 0zM2020.01 278.52 a6.1 6.1 0 1 0 12.2 0 a6.1 6.1 0 1 0 -12.2 0zM2020.01 339.52 a6.1 6.1 0 1 0 12.2 0 a6.1 6.1 0 1 0 -12.2 0zM1967.18 370.02 a6.1 6.1 0 1 0 12.2 0 a6.1 6.1 0 1 0 -12.2 0zM1914.36 339.52 a6.1 6.1 0 1 0 12.2 0 a6.1 6.1 0 1 0 -12.2 0zM1914.36 278.52 a6.1 6.1 0 1 0 12.2 0 a6.1 6.1 0 1 0 -12.2 0zM1967.18 431.02 a6.1 6.1 0 1 0 12.2 0 a6.1 6.1 0 1 0 -12.2 0zM2020.01 461.52 a6.1 6.1 0 1 0 12.2 0 a6.1 6.1 0 1 0 -12.2 0zM2020.01 522.52 a6.1 6.1 0 1 0 12.2 0 a6.1 6.1 0 1 0 -12.2 0zM1967.18 553.02 a6.1 6.1 0 1 0 12.2 0 a6.1 6.1 0 1 0 -12.2 0zM1967.18 614.02 a6.1 6.1 0 1 0 12.2 0 a6.1 6.1 0 1 0 -12.2 0zM1914.36 644.52 a6.1 6.1 0 1 0 12.2 0 a6.1 6.1 0 1 0 -12.2 0zM1861.53 614.02 a6.1 6.1 0 1 0 12.2 0 a6.1 6.1 0 1 0 -12.2 0zM1914.36 705.52 a6.1 6.1 0 1 0 12.2 0 a6.1 6.1 0 1 0 -12.2 0zM1967.18 736.02 a6.1 6.1 0 1 0 12.2 0 a6.1 6.1 0 1 0 -12.2 0zM1967.18 797.02 a6.1 6.1 0 1 0 12.2 0 a6.1 6.1 0 1 0 -12.2 0zM1914.36 827.52 a6.1 6.1 0 1 0 12.2 0 a6.1 6.1 0 1 0 -12.2 0zM1861.53 797.02 a6.1 6.1 0 1 0 12.2 0 a6.1 6.1 0 1 0 -12.2 0zM1861.53 736.02 a6.1 6.1 0 1 0 12.2 0 a6.1 6.1 0 1 0 -12.2 0zM1914.36 888.52 a6.1 6.1 0 1 0 12.2 0 a6.1 6.1 0 1 0 -12.2 0zM1967.18 919.02 a6.1 6.1 0 1 0 12.2 0 a6.1 6.1 0 1 0 -12.2 0zM1967.18 980.02 a6.1 6.1 0 1 0 12.2 0 a6.1 6.1 0 1 0 -12.2 0zM1914.36 1010.52 a6.1 6.1 0 1 0 12.2 0 a6.1 6.1 0 1 0 -12.2 0zM2020.01 1010.52 a6.1 6.1 0 1 0 12.2 0 a6.1 6.1 0 1 0 -12.2 0zM2020.01 1071.52 a6.1 6.1 0 1 0 12.2 0 a6.1 6.1 0 1 0 -12.2 0zM1967.18 1102.02 a6.1 6.1 0 1 0 12.2 0 a6.1 6.1 0 1 0 -12.2 0zM1914.36 1071.52 a6.1 6.1 0 1 0 12.2 0 a6.1 6.1 0 1 0 -12.2 0z" fill="url(#SvgjsLinearGradient6184)"></path><path id="h_path5" d="M48 32.06L71.39 45.56L71.39 72.56L48 86.06L24.62 72.56L24.62 45.56zM24.62 315.56L48 329.06L48 356.06L24.62 369.56L1.24 356.06L1.24 329.06zM48 680.06L71.39 693.56L71.39 720.56L48 734.06L24.62 720.56L24.62 693.56zM71.39 -8.44L94.77 5.06L94.77 32.06L71.39 45.56L48 32.06L48 5.06zM94.77 518.06L118.15 531.56L118.15 558.56L94.77 572.06L71.39 558.56L71.39 531.56zM71.39 720.56L94.77 734.06L94.77 761.06L71.39 774.56L48 761.06L48 734.06zM71.39 963.56L94.77 977.06L94.77 1004.06L71.39 1017.56L48 1004.06L48 977.06zM94.77 1004.06L118.15 1017.56L118.15 1044.56L94.77 1058.06L71.39 1044.56L71.39 1017.56zM71.39 1044.56L94.77 1058.06L94.77 1085.06L71.39 1098.56L48 1085.06L48 1058.06zM141.54 680.06L164.92 693.56L164.92 720.56L141.54 734.06L118.15 720.56L118.15 693.56zM141.54 1004.06L164.92 1017.56L164.92 1044.56L141.54 1058.06L118.15 1044.56L118.15 1017.56zM141.54 1085.06L164.92 1098.56L164.92 1125.56L141.54 1139.06L118.15 1125.56L118.15 1098.56zM188.3 437.06L211.69 450.56L211.69 477.56L188.3 491.06L164.92 477.56L164.92 450.56zM188.3 761.06L211.69 774.56L211.69 801.56L188.3 815.06L164.92 801.56L164.92 774.56zM164.92 801.56L188.3 815.06L188.3 842.06L164.92 855.56L141.54 842.06L141.54 815.06zM164.92 963.56L188.3 977.06L188.3 1004.06L164.92 1017.56L141.54 1004.06L141.54 977.06zM164.92 1044.56L188.3 1058.06L188.3 1085.06L164.92 1098.56L141.54 1085.06L141.54 1058.06zM235.07 194.06L258.45 207.56L258.45 234.56L235.07 248.06L211.69 234.56L211.69 207.56zM211.69 396.56L235.07 410.06L235.07 437.06L211.69 450.56L188.3 437.06L188.3 410.06zM235.07 518.06L258.45 531.56L258.45 558.56L235.07 572.06L211.69 558.56L211.69 531.56zM211.69 639.56L235.07 653.06L235.07 680.06L211.69 693.56L188.3 680.06L188.3 653.06zM235.07 680.06L258.45 693.56L258.45 720.56L235.07 734.06L211.69 720.56L211.69 693.56zM235.07 842.06L258.45 855.56L258.45 882.56L235.07 896.06L211.69 882.56L211.69 855.56zM281.84 923.06L305.22 936.56L305.22 963.56L281.84 977.06L258.45 963.56L258.45 936.56zM328.6 194.06L351.99 207.56L351.99 234.56L328.6 248.06L305.22 234.56L305.22 207.56zM305.22 882.56L328.6 896.06L328.6 923.06L305.22 936.56L281.84 923.06L281.84 896.06zM328.6 1004.06L351.99 1017.56L351.99 1044.56L328.6 1058.06L305.22 1044.56L305.22 1017.56zM351.99 396.56L375.37 410.06L375.37 437.06L351.99 450.56L328.6 437.06L328.6 410.06zM351.99 558.56L375.37 572.06L375.37 599.06L351.99 612.56L328.6 599.06L328.6 572.06zM398.75 -8.44L422.14 5.06L422.14 32.06L398.75 45.56L375.37 32.06L375.37 5.06zM422.14 113.06L445.52 126.56L445.52 153.56L422.14 167.06L398.75 153.56L398.75 126.56zM398.75 558.56L422.14 572.06L422.14 599.06L398.75 612.56L375.37 599.06L375.37 572.06zM398.75 801.56L422.14 815.06L422.14 842.06L398.75 855.56L375.37 842.06L375.37 815.06zM468.9 194.06L492.29 207.56L492.29 234.56L468.9 248.06L445.52 234.56L445.52 207.56zM445.52 315.56L468.9 329.06L468.9 356.06L445.52 369.56L422.14 356.06L422.14 329.06zM468.9 356.06L492.29 369.56L492.29 396.56L468.9 410.06L445.52 396.56L445.52 369.56zM468.9 518.06L492.29 531.56L492.29 558.56L468.9 572.06L445.52 558.56L445.52 531.56zM468.9 599.06L492.29 612.56L492.29 639.56L468.9 653.06L445.52 639.56L445.52 612.56zM445.52 720.56L468.9 734.06L468.9 761.06L445.52 774.56L422.14 761.06L422.14 734.06zM515.67 194.06L539.05 207.56L539.05 234.56L515.67 248.06L492.29 234.56L492.29 207.56zM492.29 234.56L515.67 248.06L515.67 275.06L492.29 288.56L468.9 275.06L468.9 248.06zM515.67 356.06L539.05 369.56L539.05 396.56L515.67 410.06L492.29 396.56L492.29 369.56zM515.67 437.06L539.05 450.56L539.05 477.56L515.67 491.06L492.29 477.56L492.29 450.56zM492.29 558.56L515.67 572.06L515.67 599.06L492.29 612.56L468.9 599.06L468.9 572.06zM492.29 801.56L515.67 815.06L515.67 842.06L492.29 855.56L468.9 842.06L468.9 815.06zM515.67 1004.06L539.05 1017.56L539.05 1044.56L515.67 1058.06L492.29 1044.56L492.29 1017.56zM562.44 437.06L585.82 450.56L585.82 477.56L562.44 491.06L539.05 477.56L539.05 450.56zM539.05 477.56L562.44 491.06L562.44 518.06L539.05 531.56L515.67 518.06L515.67 491.06zM539.05 720.56L562.44 734.06L562.44 761.06L539.05 774.56L515.67 761.06L515.67 734.06zM562.44 842.06L585.82 855.56L585.82 882.56L562.44 896.06L539.05 882.56L539.05 855.56zM539.05 882.56L562.44 896.06L562.44 923.06L539.05 936.56L515.67 923.06L515.67 896.06zM585.82 153.56L609.2 167.06L609.2 194.06L585.82 207.56L562.44 194.06L562.44 167.06zM609.2 356.06L632.59 369.56L632.59 396.56L609.2 410.06L585.82 396.56L585.82 369.56zM609.2 437.06L632.59 450.56L632.59 477.56L609.2 491.06L585.82 477.56L585.82 450.56zM609.2 842.06L632.59 855.56L632.59 882.56L609.2 896.06L585.82 882.56L585.82 855.56zM632.59 153.56L655.97 167.06L655.97 194.06L632.59 207.56L609.2 194.06L609.2 167.06zM655.97 680.06L679.35 693.56L679.35 720.56L655.97 734.06L632.59 720.56L632.59 693.56zM655.97 1085.06L679.35 1098.56L679.35 1125.56L655.97 1139.06L632.59 1125.56L632.59 1098.56zM679.35 72.56L702.74 86.06L702.74 113.06L679.35 126.56L655.97 113.06L655.97 86.06zM679.35 234.56L702.74 248.06L702.74 275.06L679.35 288.56L655.97 275.06L655.97 248.06zM702.74 275.06L726.12 288.56L726.12 315.56L702.74 329.06L679.35 315.56L679.35 288.56zM702.74 356.06L726.12 369.56L726.12 396.56L702.74 410.06L679.35 396.56L679.35 369.56zM679.35 396.56L702.74 410.06L702.74 437.06L679.35 450.56L655.97 437.06L655.97 410.06zM679.35 477.56L702.74 491.06L702.74 518.06L679.35 531.56L655.97 518.06L655.97 491.06zM702.74 842.06L726.12 855.56L726.12 882.56L702.74 896.06L679.35 882.56L679.35 855.56zM726.12 -8.44L749.5 5.06L749.5 32.06L726.12 45.56L702.74 32.06L702.74 5.06zM726.12 558.56L749.5 572.06L749.5 599.06L726.12 612.56L702.74 599.06L702.74 572.06zM749.5 842.06L772.89 855.56L772.89 882.56L749.5 896.06L726.12 882.56L726.12 855.56zM726.12 882.56L749.5 896.06L749.5 923.06L726.12 936.56L702.74 923.06L702.74 896.06zM749.5 1085.06L772.89 1098.56L772.89 1125.56L749.5 1139.06L726.12 1125.56L726.12 1098.56zM772.89 315.56L796.27 329.06L796.27 356.06L772.89 369.56L749.5 356.06L749.5 329.06zM796.27 1085.06L819.65 1098.56L819.65 1125.56L796.27 1139.06L772.89 1125.56L772.89 1098.56zM843.04 32.06L866.42 45.56L866.42 72.56L843.04 86.06L819.65 72.56L819.65 45.56zM843.04 194.06L866.42 207.56L866.42 234.56L843.04 248.06L819.65 234.56L819.65 207.56zM819.65 234.56L843.04 248.06L843.04 275.06L819.65 288.56L796.27 275.06L796.27 248.06zM843.04 761.06L866.42 774.56L866.42 801.56L843.04 815.06L819.65 801.56L819.65 774.56zM819.65 801.56L843.04 815.06L843.04 842.06L819.65 855.56L796.27 842.06L796.27 815.06zM819.65 882.56L843.04 896.06L843.04 923.06L819.65 936.56L796.27 923.06L796.27 896.06zM819.65 963.56L843.04 977.06L843.04 1004.06L819.65 1017.56L796.27 1004.06L796.27 977.06zM866.42 -8.44L889.8 5.06L889.8 32.06L866.42 45.56L843.04 32.06L843.04 5.06zM889.8 113.06L913.19 126.56L913.19 153.56L889.8 167.06L866.42 153.56L866.42 126.56zM889.8 275.06L913.19 288.56L913.19 315.56L889.8 329.06L866.42 315.56L866.42 288.56zM866.42 315.56L889.8 329.06L889.8 356.06L866.42 369.56L843.04 356.06L843.04 329.06zM866.42 477.56L889.8 491.06L889.8 518.06L866.42 531.56L843.04 518.06L843.04 491.06zM889.8 518.06L913.19 531.56L913.19 558.56L889.8 572.06L866.42 558.56L866.42 531.56zM936.57 194.06L959.95 207.56L959.95 234.56L936.57 248.06L913.19 234.56L913.19 207.56zM913.19 396.56L936.57 410.06L936.57 437.06L913.19 450.56L889.8 437.06L889.8 410.06zM913.19 558.56L936.57 572.06L936.57 599.06L913.19 612.56L889.8 599.06L889.8 572.06zM913.19 720.56L936.57 734.06L936.57 761.06L913.19 774.56L889.8 761.06L889.8 734.06zM959.95 72.56L983.34 86.06L983.34 113.06L959.95 126.56L936.57 113.06L936.57 86.06zM983.34 113.06L1006.72 126.56L1006.72 153.56L983.34 167.06L959.95 153.56L959.95 126.56zM959.95 153.56L983.34 167.06L983.34 194.06L959.95 207.56L936.57 194.06L936.57 167.06zM983.34 194.06L1006.72 207.56L1006.72 234.56L983.34 248.06L959.95 234.56L959.95 207.56zM983.34 275.06L1006.72 288.56L1006.72 315.56L983.34 329.06L959.95 315.56L959.95 288.56zM959.95 396.56L983.34 410.06L983.34 437.06L959.95 450.56L936.57 437.06L936.57 410.06zM983.34 437.06L1006.72 450.56L1006.72 477.56L983.34 491.06L959.95 477.56L959.95 450.56zM959.95 558.56L983.34 572.06L983.34 599.06L959.95 612.56L936.57 599.06L936.57 572.06zM959.95 639.56L983.34 653.06L983.34 680.06L959.95 693.56L936.57 680.06L936.57 653.06zM983.34 923.06L1006.72 936.56L1006.72 963.56L983.34 977.06L959.95 963.56L959.95 936.56zM1030.1 113.06L1053.49 126.56L1053.49 153.56L1030.1 167.06L1006.72 153.56L1006.72 126.56zM1030.1 437.06L1053.49 450.56L1053.49 477.56L1030.1 491.06L1006.72 477.56L1006.72 450.56zM1030.1 518.06L1053.49 531.56L1053.49 558.56L1030.1 572.06L1006.72 558.56L1006.72 531.56zM1030.1 761.06L1053.49 774.56L1053.49 801.56L1030.1 815.06L1006.72 801.56L1006.72 774.56zM1006.72 963.56L1030.1 977.06L1030.1 1004.06L1006.72 1017.56L983.34 1004.06L983.34 977.06zM1006.72 1044.56L1030.1 1058.06L1030.1 1085.06L1006.72 1098.56L983.34 1085.06L983.34 1058.06zM1076.87 437.06L1100.25 450.56L1100.25 477.56L1076.87 491.06L1053.49 477.56L1053.49 450.56zM1076.87 1004.06L1100.25 1017.56L1100.25 1044.56L1076.87 1058.06L1053.49 1044.56L1053.49 1017.56zM1053.49 1044.56L1076.87 1058.06L1076.87 1085.06L1053.49 1098.56L1030.1 1085.06L1030.1 1058.06zM1076.87 1085.06L1100.25 1098.56L1100.25 1125.56L1076.87 1139.06L1053.49 1125.56L1053.49 1098.56zM1123.64 194.06L1147.02 207.56L1147.02 234.56L1123.64 248.06L1100.25 234.56L1100.25 207.56zM1123.64 275.06L1147.02 288.56L1147.02 315.56L1123.64 329.06L1100.25 315.56L1100.25 288.56zM1100.25 315.56L1123.64 329.06L1123.64 356.06L1100.25 369.56L1076.87 356.06L1076.87 329.06zM1123.64 437.06L1147.02 450.56L1147.02 477.56L1123.64 491.06L1100.25 477.56L1100.25 450.56zM1100.25 639.56L1123.64 653.06L1123.64 680.06L1100.25 693.56L1076.87 680.06L1076.87 653.06zM1100.25 801.56L1123.64 815.06L1123.64 842.06L1100.25 855.56L1076.87 842.06L1076.87 815.06zM1100.25 963.56L1123.64 977.06L1123.64 1004.06L1100.25 1017.56L1076.87 1004.06L1076.87 977.06zM1123.64 1085.06L1147.02 1098.56L1147.02 1125.56L1123.64 1139.06L1100.25 1125.56L1100.25 1098.56zM1147.02 72.56L1170.4 86.06L1170.4 113.06L1147.02 126.56L1123.64 113.06L1123.64 86.06zM1170.4 194.06L1193.79 207.56L1193.79 234.56L1170.4 248.06L1147.02 234.56L1147.02 207.56zM1147.02 234.56L1170.4 248.06L1170.4 275.06L1147.02 288.56L1123.64 275.06L1123.64 248.06zM1170.4 842.06L1193.79 855.56L1193.79 882.56L1170.4 896.06L1147.02 882.56L1147.02 855.56zM1170.4 923.06L1193.79 936.56L1193.79 963.56L1170.4 977.06L1147.02 963.56L1147.02 936.56zM1193.79 -8.44L1217.17 5.06L1217.17 32.06L1193.79 45.56L1170.4 32.06L1170.4 5.06zM1217.17 275.06L1240.55 288.56L1240.55 315.56L1217.17 329.06L1193.79 315.56L1193.79 288.56zM1217.17 437.06L1240.55 450.56L1240.55 477.56L1217.17 491.06L1193.79 477.56L1193.79 450.56zM1217.17 518.06L1240.55 531.56L1240.55 558.56L1217.17 572.06L1193.79 558.56L1193.79 531.56zM1193.79 639.56L1217.17 653.06L1217.17 680.06L1193.79 693.56L1170.4 680.06L1170.4 653.06zM1193.79 720.56L1217.17 734.06L1217.17 761.06L1193.79 774.56L1170.4 761.06L1170.4 734.06zM1240.55 -8.44L1263.94 5.06L1263.94 32.06L1240.55 45.56L1217.17 32.06L1217.17 5.06zM1263.94 113.06L1287.32 126.56L1287.32 153.56L1263.94 167.06L1240.55 153.56L1240.55 126.56zM1240.55 315.56L1263.94 329.06L1263.94 356.06L1240.55 369.56L1217.17 356.06L1217.17 329.06zM1240.55 720.56L1263.94 734.06L1263.94 761.06L1240.55 774.56L1217.17 761.06L1217.17 734.06zM1287.32 -8.44L1310.7 5.06L1310.7 32.06L1287.32 45.56L1263.94 32.06L1263.94 5.06zM1287.32 234.56L1310.7 248.06L1310.7 275.06L1287.32 288.56L1263.94 275.06L1263.94 248.06zM1310.7 518.06L1334.09 531.56L1334.09 558.56L1310.7 572.06L1287.32 558.56L1287.32 531.56zM1287.32 558.56L1310.7 572.06L1310.7 599.06L1287.32 612.56L1263.94 599.06L1263.94 572.06zM1287.32 720.56L1310.7 734.06L1310.7 761.06L1287.32 774.56L1263.94 761.06L1263.94 734.06zM1310.7 761.06L1334.09 774.56L1334.09 801.56L1310.7 815.06L1287.32 801.56L1287.32 774.56zM1310.7 923.06L1334.09 936.56L1334.09 963.56L1310.7 977.06L1287.32 963.56L1287.32 936.56zM1310.7 1085.06L1334.09 1098.56L1334.09 1125.56L1310.7 1139.06L1287.32 1125.56L1287.32 1098.56zM1357.47 32.06L1380.85 45.56L1380.85 72.56L1357.47 86.06L1334.09 72.56L1334.09 45.56zM1334.09 315.56L1357.47 329.06L1357.47 356.06L1334.09 369.56L1310.7 356.06L1310.7 329.06zM1334.09 396.56L1357.47 410.06L1357.47 437.06L1334.09 450.56L1310.7 437.06L1310.7 410.06zM1357.47 437.06L1380.85 450.56L1380.85 477.56L1357.47 491.06L1334.09 477.56L1334.09 450.56zM1334.09 558.56L1357.47 572.06L1357.47 599.06L1334.09 612.56L1310.7 599.06L1310.7 572.06zM1357.47 599.06L1380.85 612.56L1380.85 639.56L1357.47 653.06L1334.09 639.56L1334.09 612.56zM1357.47 680.06L1380.85 693.56L1380.85 720.56L1357.47 734.06L1334.09 720.56L1334.09 693.56zM1357.47 761.06L1380.85 774.56L1380.85 801.56L1357.47 815.06L1334.09 801.56L1334.09 774.56zM1334.09 801.56L1357.47 815.06L1357.47 842.06L1334.09 855.56L1310.7 842.06L1310.7 815.06zM1334.09 882.56L1357.47 896.06L1357.47 923.06L1334.09 936.56L1310.7 923.06L1310.7 896.06zM1357.47 1004.06L1380.85 1017.56L1380.85 1044.56L1357.47 1058.06L1334.09 1044.56L1334.09 1017.56zM1380.85 315.56L1404.24 329.06L1404.24 356.06L1380.85 369.56L1357.47 356.06L1357.47 329.06zM1404.24 356.06L1427.62 369.56L1427.62 396.56L1404.24 410.06L1380.85 396.56L1380.85 369.56zM1380.85 477.56L1404.24 491.06L1404.24 518.06L1380.85 531.56L1357.47 518.06L1357.47 491.06zM1380.85 558.56L1404.24 572.06L1404.24 599.06L1380.85 612.56L1357.47 599.06L1357.47 572.06zM1404.24 680.06L1427.62 693.56L1427.62 720.56L1404.24 734.06L1380.85 720.56L1380.85 693.56zM1380.85 801.56L1404.24 815.06L1404.24 842.06L1380.85 855.56L1357.47 842.06L1357.47 815.06zM1404.24 923.06L1427.62 936.56L1427.62 963.56L1404.24 977.06L1380.85 963.56L1380.85 936.56zM1427.62 558.56L1451 572.06L1451 599.06L1427.62 612.56L1404.24 599.06L1404.24 572.06zM1451 680.06L1474.39 693.56L1474.39 720.56L1451 734.06L1427.62 720.56L1427.62 693.56zM1451 842.06L1474.39 855.56L1474.39 882.56L1451 896.06L1427.62 882.56L1427.62 855.56zM1497.77 32.06L1521.15 45.56L1521.15 72.56L1497.77 86.06L1474.39 72.56L1474.39 45.56zM1474.39 72.56L1497.77 86.06L1497.77 113.06L1474.39 126.56L1451 113.06L1451 86.06zM1474.39 234.56L1497.77 248.06L1497.77 275.06L1474.39 288.56L1451 275.06L1451 248.06zM1497.77 518.06L1521.15 531.56L1521.15 558.56L1497.77 572.06L1474.39 558.56L1474.39 531.56zM1474.39 639.56L1497.77 653.06L1497.77 680.06L1474.39 693.56L1451 680.06L1451 653.06zM1474.39 882.56L1497.77 896.06L1497.77 923.06L1474.39 936.56L1451 923.06L1451 896.06zM1497.77 1004.06L1521.15 1017.56L1521.15 1044.56L1497.77 1058.06L1474.39 1044.56L1474.39 1017.56zM1521.15 -8.44L1544.54 5.06L1544.54 32.06L1521.15 45.56L1497.77 32.06L1497.77 5.06zM1544.54 518.06L1567.92 531.56L1567.92 558.56L1544.54 572.06L1521.15 558.56L1521.15 531.56zM1591.3 113.06L1614.69 126.56L1614.69 153.56L1591.3 167.06L1567.92 153.56L1567.92 126.56zM1567.92 315.56L1591.3 329.06L1591.3 356.06L1567.92 369.56L1544.54 356.06L1544.54 329.06zM1567.92 720.56L1591.3 734.06L1591.3 761.06L1567.92 774.56L1544.54 761.06L1544.54 734.06zM1614.69 234.56L1638.07 248.06L1638.07 275.06L1614.69 288.56L1591.3 275.06L1591.3 248.06zM1614.69 315.56L1638.07 329.06L1638.07 356.06L1614.69 369.56L1591.3 356.06L1591.3 329.06zM1638.07 923.06L1661.45 936.56L1661.45 963.56L1638.07 977.06L1614.69 963.56L1614.69 936.56zM1614.69 963.56L1638.07 977.06L1638.07 1004.06L1614.69 1017.56L1591.3 1004.06L1591.3 977.06zM1638.07 1004.06L1661.45 1017.56L1661.45 1044.56L1638.07 1058.06L1614.69 1044.56L1614.69 1017.56zM1684.84 194.06L1708.22 207.56L1708.22 234.56L1684.84 248.06L1661.45 234.56L1661.45 207.56zM1684.84 356.06L1708.22 369.56L1708.22 396.56L1684.84 410.06L1661.45 396.56L1661.45 369.56zM1661.45 396.56L1684.84 410.06L1684.84 437.06L1661.45 450.56L1638.07 437.06L1638.07 410.06zM1684.84 437.06L1708.22 450.56L1708.22 477.56L1684.84 491.06L1661.45 477.56L1661.45 450.56zM1684.84 761.06L1708.22 774.56L1708.22 801.56L1684.84 815.06L1661.45 801.56L1661.45 774.56zM1684.84 842.06L1708.22 855.56L1708.22 882.56L1684.84 896.06L1661.45 882.56L1661.45 855.56zM1684.84 1004.06L1708.22 1017.56L1708.22 1044.56L1684.84 1058.06L1661.45 1044.56L1661.45 1017.56zM1731.6 113.06L1754.99 126.56L1754.99 153.56L1731.6 167.06L1708.22 153.56L1708.22 126.56zM1708.22 315.56L1731.6 329.06L1731.6 356.06L1708.22 369.56L1684.84 356.06L1684.84 329.06zM1731.6 356.06L1754.99 369.56L1754.99 396.56L1731.6 410.06L1708.22 396.56L1708.22 369.56zM1708.22 801.56L1731.6 815.06L1731.6 842.06L1708.22 855.56L1684.84 842.06L1684.84 815.06zM1754.99 72.56L1778.37 86.06L1778.37 113.06L1754.99 126.56L1731.6 113.06L1731.6 86.06zM1754.99 396.56L1778.37 410.06L1778.37 437.06L1754.99 450.56L1731.6 437.06L1731.6 410.06zM1754.99 639.56L1778.37 653.06L1778.37 680.06L1754.99 693.56L1731.6 680.06L1731.6 653.06zM1754.99 801.56L1778.37 815.06L1778.37 842.06L1754.99 855.56L1731.6 842.06L1731.6 815.06zM1825.14 32.06L1848.52 45.56L1848.52 72.56L1825.14 86.06L1801.75 72.56L1801.75 45.56zM1825.14 437.06L1848.52 450.56L1848.52 477.56L1825.14 491.06L1801.75 477.56L1801.75 450.56zM1801.75 639.56L1825.14 653.06L1825.14 680.06L1801.75 693.56L1778.37 680.06L1778.37 653.06zM1825.14 680.06L1848.52 693.56L1848.52 720.56L1825.14 734.06L1801.75 720.56L1801.75 693.56zM1801.75 963.56L1825.14 977.06L1825.14 1004.06L1801.75 1017.56L1778.37 1004.06L1778.37 977.06zM1871.9 32.06L1895.29 45.56L1895.29 72.56L1871.9 86.06L1848.52 72.56L1848.52 45.56zM1871.9 356.06L1895.29 369.56L1895.29 396.56L1871.9 410.06L1848.52 396.56L1848.52 369.56zM1871.9 761.06L1895.29 774.56L1895.29 801.56L1871.9 815.06L1848.52 801.56L1848.52 774.56zM1871.9 842.06L1895.29 855.56L1895.29 882.56L1871.9 896.06L1848.52 882.56L1848.52 855.56zM1871.9 1004.06L1895.29 1017.56L1895.29 1044.56L1871.9 1058.06L1848.52 1044.56L1848.52 1017.56zM1895.29 72.56L1918.67 86.06L1918.67 113.06L1895.29 126.56L1871.9 113.06L1871.9 86.06zM1918.67 356.06L1942.05 369.56L1942.05 396.56L1918.67 410.06L1895.29 396.56L1895.29 369.56zM1895.29 720.56L1918.67 734.06L1918.67 761.06L1895.29 774.56L1871.9 761.06L1871.9 734.06zM1895.29 801.56L1918.67 815.06L1918.67 842.06L1895.29 855.56L1871.9 842.06L1871.9 815.06zM1895.29 963.56L1918.67 977.06L1918.67 1004.06L1895.29 1017.56L1871.9 1004.06L1871.9 977.06zM1942.05 558.56L1965.44 572.06L1965.44 599.06L1942.05 612.56L1918.67 599.06L1918.67 572.06zM1965.44 599.06L1988.82 612.56L1988.82 639.56L1965.44 653.06L1942.05 639.56L1942.05 612.56zM1942.05 720.56L1965.44 734.06L1965.44 761.06L1942.05 774.56L1918.67 761.06L1918.67 734.06zM1965.44 761.06L1988.82 774.56L1988.82 801.56L1965.44 815.06L1942.05 801.56L1942.05 774.56zM1942.05 801.56L1965.44 815.06L1965.44 842.06L1942.05 855.56L1918.67 842.06L1918.67 815.06zM1965.44 842.06L1988.82 855.56L1988.82 882.56L1965.44 896.06L1942.05 882.56L1942.05 855.56z" stroke="url(#SvgjsLinearGradient6185)" stroke-width="2"></path></g><defs><mask id="SvgjsMask6182"><rect width="1920" height="1080" fill="#ffffff"></rect></mask><linearGradient x1="50%" y1="100%" x2="50%" y2="0%" gradientUnits="userSpaceOnUse" id="SvgjsLinearGradient6183"><stop stop-color="rgba(8, 19, 31, 1)" offset="0"></stop><stop stop-color="rgba(9, 34, 61, 1)" offset="1"></stop></linearGradient><linearGradient x1="960" y1="0" x2="960" y2="1080" gradientUnits="userSpaceOnUse" id="SvgjsLinearGradient6184"><stop stop-color="rgba(7, 23, 40, 0.31)" offset="0"></stop><stop stop-color="rgba(3, 48, 93, 0.52)" offset="1"></stop></linearGradient><linearGradient x1="960" y1="1080" x2="960" y2="0" gradientUnits="userSpaceOnUse" id="SvgjsLinearGradient6185"><stop stop-color="rgba(12, 45, 79, 0.45)" offset="0"></stop><stop stop-color="rgba(8, 48, 101, 0.3)" offset="1"></stop></linearGradient></defs></svg>