<?xml version="1.0" encoding="UTF-8" standalone="no"?>
<!-- Created with Inkscape (http://www.inkscape.org/) -->

<svg
   xmlns:osb="http://www.openswatchbook.org/uri/2009/osb"
   xmlns:dc="http://purl.org/dc/elements/1.1/"
   xmlns:cc="http://creativecommons.org/ns#"
   xmlns:rdf="http://www.w3.org/1999/02/22-rdf-syntax-ns#"
   xmlns:svg="http://www.w3.org/2000/svg"
   xmlns="http://www.w3.org/2000/svg"
   xmlns:xlink="http://www.w3.org/1999/xlink"
   xmlns:sodipodi="http://sodipodi.sourceforge.net/DTD/sodipodi-0.dtd"
   xmlns:inkscape="http://www.inkscape.org/namespaces/inkscape"
   width="442.85712"
   height="442.85712"
   viewBox="0 0 117.17261 117.17261"
   version="1.1"
   id="svg8"
   inkscape:version="0.92.4 (5da689c313, 2019-01-14)"
   sodipodi:docname="planet.svg"
   style="enable-background:new">
  <defs
     id="defs2">
    <linearGradient
       inkscape:collect="always"
       id="linearGradient899">
      <stop
         style="stop-color:#53adae;stop-opacity:1"
         offset="0"
         id="stop895" />
      <stop
         style="stop-color:#52acad;stop-opacity:0.694"
         offset="1"
         id="stop897" />
    </linearGradient>
    <linearGradient
       inkscape:collect="always"
       id="linearGradient891">
      <stop
         style="stop-color:#375eb0;stop-opacity:0.88832486"
         offset="0"
         id="stop887" />
      <stop
         style="stop-color:#396997;stop-opacity:0.0964467"
         offset="1"
         id="stop889" />
    </linearGradient>
    <linearGradient
       inkscape:collect="always"
       id="linearGradient844">
      <stop
         style="stop-color:#487fac;stop-opacity:1"
         offset="0"
         id="stop853" />
      <stop
         style="stop-color:#4e869f;stop-opacity:1"
         offset="1"
         id="stop855" />
    </linearGradient>
    <linearGradient
       id="linearGradient2399"
       osb:paint="solid">
      <stop
         style="stop-color:#34adc2;stop-opacity:1;"
         offset="0"
         id="stop2397" />
    </linearGradient>
    <inkscape:perspective
       sodipodi:type="inkscape:persp3d"
       inkscape:vp_x="0 : 148.49999 : 1"
       inkscape:vp_y="0 : 999.99995 : 0"
       inkscape:vp_z="210.00001 : 148.49999 : 1"
       inkscape:persp3d-origin="105 : 98.999995 : 1"
       id="perspective839" />
    <linearGradient
       inkscape:collect="always"
       xlink:href="#linearGradient844"
       id="linearGradient862"
       x1="68.30529"
       y1="95.727669"
       x2="138.55052"
       y2="192.69429"
       gradientUnits="userSpaceOnUse" />
    <linearGradient
       inkscape:collect="always"
       xlink:href="#linearGradient891"
       id="linearGradient893"
       x1="155.76913"
       y1="102.33006"
       x2="470.79678"
       y2="460.9342"
       gradientUnits="userSpaceOnUse" />
    <linearGradient
       inkscape:collect="always"
       xlink:href="#linearGradient899"
       id="linearGradient901"
       x1="136.70117"
       y1="115.93945"
       x2="477.40714"
       y2="436.65952"
       gradientUnits="userSpaceOnUse" />
    <filter
       inkscape:label="Air Spray"
       inkscape:menu="Scatter"
       inkscape:menu-tooltip="Convert to small scattered particles with some thickness"
       width="2"
       height="2"
       y="-0.5"
       x="-0.5"
       style="color-interpolation-filters:sRGB"
       id="filter850">
      <feGaussianBlur
         stdDeviation="17.490769230769232"
         result="result1"
         id="feGaussianBlur838" />
      <feBlend
         in2="result1"
         result="fbSourceGraphic"
         mode="multiply"
         id="feBlend840" />
      <feTurbulence
         baseFrequency="0.8"
         type="fractalNoise"
         seed="0"
         numOctaves="3"
         result="result3"
         id="feTurbulence842" />
      <feDisplacementMap
         in="fbSourceGraphic"
         xChannelSelector="R"
         yChannelSelector="G"
         scale="18.9"
         result="result2"
         in2="result3"
         id="feDisplacementMap844"
         stdDeviation="17.489999999999998" />
      <feMorphology
         radius="1"
         operator="dilate"
         result="result4"
         id="feMorphology846" />
      <feBlend
         mode="screen"
         in2="result2"
         id="feBlend848" />
    </filter>
    <filter
       inkscape:label="Air Spray"
       inkscape:menu="Scatter"
       inkscape:menu-tooltip="Convert to small scattered particles with some thickness"
       width="2"
       height="2"
       y="-0.5"
       x="-0.5"
       style="color-interpolation-filters:sRGB"
       id="filter1302">
      <feGaussianBlur
         stdDeviation="37.07"
         result="result1"
         id="feGaussianBlur1290" />
      <feBlend
         in2="result1"
         result="fbSourceGraphic"
         mode="multiply"
         id="feBlend1292" />
      <feTurbulence
         baseFrequency="1"
         type="fractalNoise"
         seed="0"
         numOctaves="4.5999999999999996"
         result="result3"
         id="feTurbulence1294" />
      <feDisplacementMap
         in="fbSourceGraphic"
         xChannelSelector="R"
         yChannelSelector="G"
         scale="0"
         result="result2"
         in2="result3"
         id="feDisplacementMap1296"
         numOctaves="5" />
      <feMorphology
         radius="1"
         operator="dilate"
         result="result4"
         id="feMorphology1298" />
      <feBlend
         mode="screen"
         in2="result2"
         id="feBlend1300" />
    </filter>
    <filter
       inkscape:label="Pointillism"
       style="color-interpolation-filters:sRGB"
       inkscape:menu-tooltip="Gives a turbulent pointillist HSL sensitive transparency"
       inkscape:menu="Scatter"
       height="1.2"
       width="1.2"
       y="-0.1"
       x="-0.1"
       id="filter5815">
      <feTurbulence
         seed="50"
         type="fractalNoise"
         baseFrequency="0.34999999999999998"
         numOctaves="3"
         result="result1"
         id="feTurbulence5797" />
      <feColorMatrix
         type="luminanceToAlpha"
         in="SourceGraphic"
         result="result0"
         id="feColorMatrix5799" />
      <feColorMatrix
         result="result2"
         values="1 0 0 0 0 0 1 0 0 0 0 0 1 0 0 0 0 0 0.5 0 "
         id="feColorMatrix5801" />
      <feComposite
         result="result3"
         operator="over"
         in="result1"
         in2="result2"
         id="feComposite5803" />
      <feColorMatrix
         result="result91"
         values="1 0 0 0 0 0 1 0 0 0 0 0 1 0 0 0 0 0 5 -3.2"
         id="feColorMatrix5805" />
      <feComposite
         in2="result91"
         operator="arithmetic"
         k1="1.5"
         result="result93"
         id="feComposite5807"
         k2="0"
         k3="0"
         k4="0" />
      <feComposite
         in2="result93"
         in="SourceGraphic"
         operator="out"
         result="result4"
         id="feComposite5809" />
      <feComposite
         in2="result4"
         operator="arithmetic"
         k2="0.5"
         k1="1"
         id="feComposite5811"
         k3="0"
         k4="0" />
      <feDisplacementMap
         scale="22.9"
         xChannelSelector="R"
         yChannelSelector="A"
         in2="result1"
         result="result92"
         id="feDisplacementMap5813" />
    </filter>
    <filter
       inkscape:collect="always"
       style="color-interpolation-filters:sRGB"
       id="filter6481"
       x="-0.0035594108"
       width="1.0071188"
       y="-0.0036415255"
       height="1.0072831">
      <feGaussianBlur
         inkscape:collect="always"
         stdDeviation="0.65531338"
         id="feGaussianBlur6483" />
    </filter>
    <filter
       inkscape:collect="always"
       style="color-interpolation-filters:sRGB"
       id="filter6493"
       x="-0.0024191656"
       width="1.0048383"
       y="-0.0023811357"
       height="1.0047623">
      <feGaussianBlur
         inkscape:collect="always"
         stdDeviation="0.42589775"
         id="feGaussianBlur6495" />
    </filter>
    <linearGradient
       inkscape:collect="always"
       xlink:href="#linearGradient844"
       id="linearGradient4565"
       gradientUnits="userSpaceOnUse"
       x1="68.30529"
       y1="95.727669"
       x2="138.55052"
       y2="192.69429" />
    <linearGradient
       inkscape:collect="always"
       xlink:href="#linearGradient844"
       id="linearGradient4567"
       gradientUnits="userSpaceOnUse"
       x1="68.30529"
       y1="95.727669"
       x2="138.55052"
       y2="192.69429" />
  </defs>
  <sodipodi:namedview
     id="base"
     pagecolor="#ffffff"
     bordercolor="#666666"
     borderopacity="1.0"
     inkscape:pageopacity="0.0"
     inkscape:pageshadow="2"
     inkscape:zoom="0.98994949"
     inkscape:cx="-393.58521"
     inkscape:cy="60.755698"
     inkscape:document-units="px"
     inkscape:current-layer="layer1"
     showgrid="false"
     inkscape:window-width="1920"
     inkscape:window-height="1017"
     inkscape:window-x="-8"
     inkscape:window-y="-8"
     inkscape:window-maximized="1"
     units="px"
     fit-margin-top="0"
     fit-margin-left="0"
     fit-margin-right="0"
     fit-margin-bottom="0" />
  <metadata
     id="metadata5">
    <rdf:RDF>
      <cc:Work
         rdf:about="">
        <dc:format>image/svg+xml</dc:format>
        <dc:type
           rdf:resource="http://purl.org/dc/dcmitype/StillImage" />
        <dc:title />
      </cc:Work>
    </rdf:RDF>
  </metadata>
  <g
     inkscape:label="Layer 1"
     inkscape:groupmode="layer"
     id="layer1"
     transform="translate(-43.65625,-85.333328)"
     style="display:inline">
    <circle
       style="display:inline;opacity:1;fill:url(#linearGradient4565);fill-opacity:1;fill-rule:nonzero;stroke:none;stroke-width:0.54318428;stroke-linecap:round;stroke-linejoin:bevel;stroke-miterlimit:4;stroke-dasharray:none;stroke-dashoffset:0;stroke-opacity:1;paint-order:markers fill stroke"
       id="path923"
       cx="102.24255"
       cy="143.91963"
       r="58.586304" />
    <path
       style="display:inline;opacity:1;fill:url(#linearGradient893);fill-opacity:1;stroke:none;stroke-width:0.99999994px;stroke-linecap:butt;stroke-linejoin:miter;stroke-opacity:1;filter:url(#filter6481)"
       d="m 262.12305,63.822266 c -4.51917,-0.06509 -11.30546,2.605468 -15.69532,2.605468 -4.99893,0 -17.01311,-3.699771 -19.28515,-1.427734 -18.42438,18.424377 -57.85872,22.858747 -76.42774,41.42773 -5.09617,5.09618 -34.32014,37.10955 -21.42968,50 2.48835,2.48837 16.1284,15.30128 23.57226,7.85743 2.42386,-2.42385 24.26753,-1.06249 32.14258,-5 4.52801,-2.26402 30.28563,-18.99955 23.57227,-25.71289 -3.09524,-3.09525 -8.33445,-4.04933 -11.42969,-7.14454 -6.50221,-6.50222 -18.50335,8.63922 -23.57031,3.57227 -4.76651,-4.76651 2.46173,-15.32112 5.71289,-18.57227 4.93636,-4.93637 27.40689,-22.36784 39.28711,-16.42773 16.14478,8.07239 16.09313,34.61976 3.57031,47.14258 -2.7381,2.73811 -1.54706,9.4045 -4.28516,12.14258 -9.61414,9.61413 -25.50479,16.93445 -35,26.42968 -4.17703,4.17702 -85.886757,23.39841 -93.572264,15.71289 -17.33065,-17.33065 26.128984,-48.0466 18.656254,-71.85937 a 221.42855,221.42855 0 0 0 -44.857426,73.57617 c 1.618105,11.17829 7.682531,21.16744 20.488282,27.57031 4.13568,2.06786 10.873712,5.9919 17.142574,2.85743 12.12876,-6.06437 27.63073,-10.48814 37.14258,-20 5.2061,-5.20611 62.74882,-18.46368 75.71485,-31.42969 14.14519,-14.14519 27.13273,-32.1347 40.71289,-45.71485 C 258.0205,127.69239 285.69068,89.975855 280,84.285156 274.63477,78.919928 271.17981,70.464974 265.71484,65 c -0.83001,-0.830009 -2.08541,-1.156036 -3.59179,-1.177734 z m 81.99218,1.832031 c 2.69298,3.810741 2.35465,12.998371 4.45704,17.203125 C 369.46051,124.6339 334.52103,171.19385 315,190.71484 303.34473,202.37015 274.25852,210.0266 265,219.28516 259.03366,225.25148 238.6325,214.22492 232.85742,220 226.2743,226.58311 185.7514,234.96342 180,240.71484 177.90583,242.809 114.21993,250.74746 105.71484,255 c -9.074431,4.53724 -34.193765,0.2303 -55.355465,-2.18555 a 221.42855,221.42855 0 0 0 -0.912109,18.22657 c 31.568921,-1.39912 84.225854,3.14132 86.980464,0.38671 2.32529,-2.32527 17.6431,-3.57031 20.71485,-3.57031 15.30855,0 73.0164,-20.15899 82.14258,-29.28515 13.83357,-13.8336 47.47574,-1.76286 62.14257,-16.42969 11.41584,-11.41584 24.86069,-18.43097 37.14454,-30.71485 6.70537,-6.70537 8.36375,-19.07664 15,-25.71289 12.70785,-12.70785 17.91618,-64.4814 11.04882,-91.667965 A 221.42855,221.42855 0 0 0 344.11523,65.654297 Z M 175.15234,78.714844 c -12.8165,0.09078 -62.29492,38.716506 -62.29492,46.999996 0,0.37977 6.81856,-6.98157 14.28516,-10.71484 11.54781,-5.77391 19.58778,-17.294863 32.14258,-23.572266 C 165.6248,88.257909 169.0077,79.967496 177.85742,80 c -0.4458,-0.891614 -1.37923,-1.294548 -2.70508,-1.285156 z M 392.18945,89.355469 C 389.55298,114.72515 387.07604,173.63881 380,180.71484 375.01998,185.69486 368.05896,210.51331 358.57227,220 c -17.82172,17.82172 -35.18779,33.04521 -52.85743,50.71484 -6.19426,6.19427 -16.68545,6.68546 -22.85742,12.85743 -6.49372,6.49372 -94.89699,22.14257 -110,22.14257 -3.64696,0 -20.66894,3.61621 -23.57226,0.71289 -5.99025,-5.99024 -39.19517,-10.80482 -42.85743,-7.14257 -5.22621,5.22624 -40.87018,-3.42914 -56.17773,-5.95118 a 221.42855,221.42855 0 0 0 0.705078,5.79688 c 24.071634,13.69109 65.657252,3.91116 73.330082,11.58398 5.23351,5.23352 48.81987,6.42774 60.71484,6.42774 55.70397,0 99.85209,-20.56697 129.28516,-50 9.15265,-9.15269 26.47726,-8.61984 35.71484,-17.85742 7.25945,-7.25946 13.01683,-23.01687 20,-30 28.56021,-28.56022 32.29078,-75.63557 32.14453,-122.884769 a 221.42855,221.42855 0 0 0 -9.95508,-7.044922 z m -103.61718,1.359375 c -19.72661,6.269628 11.31022,11.310216 5.71289,5.71289 -1.99677,-1.996777 -3.81119,-1.9094 -5.71289,-5.71289 z m -79.95508,15.599606 c -1.12714,-0.0469 -2.77322,0.40712 -5.04492,1.54297 -5.62644,-1.55422 -8.87809,2.44837 -11.42969,5 -1.09304,1.093 -0.50316,3.9937 0,5 6.79915,13.59831 24.36455,-11.21493 16.47461,-11.54297 z M 282,114.56641 c -0.94434,-0.0402 -2.07984,0.0966 -3.42773,0.43359 -11.44063,3.83327 -54.41446,59.87072 -52.85743,61.42773 1.59956,1.59958 8.74954,-3.03467 9.28516,-3.57031 6.96352,-6.96351 21.05204,-6.05202 28.57227,-13.57226 3.63968,-3.63969 32.59282,-44.11587 18.42773,-44.71875 z m 135.85742,1.86132 c -11.09594,5.54797 -17.14559,46.42668 -7.14258,56.42969 11.52945,11.52945 24.66711,-24.23606 16.42774,-40.71484 -2.5304,-5.06075 -5.56232,-9.98818 -9.28516,-15.71485 z m 20.46875,13.57032 c 3.47628,43.70916 1.14492,86.95855 -26.18359,114.28711 -6.39757,6.39756 -16.99331,13.98857 -22.14258,24.28711 -4.10151,8.20304 -13.31698,19.51495 -21.42773,23.57031 -14.7899,7.39495 -24.39884,20.41326 -39.28711,27.85742 -21.91147,10.95572 -161.6418,32.75041 -185.71289,20.71484 -18.59729,-9.29862 -53.286799,0.28358 -67.857426,-14.28711 -3.89721,-3.89719 -14.669542,-11.58772 -23.132813,-14.17578 a 221.42855,221.42855 0 0 0 42.554688,96.70313 c 10.254681,-1.65107 21.200151,-5.0718 29.148441,-1.09766 8.10167,4.05086 69.5082,0.221 75.71484,6.42774 7.74354,7.74353 55.97203,3.80014 66.42773,-1.42774 16.17204,-8.086 61.55124,-5.12154 72.14454,-15.71484 16.40243,-16.40243 40.77138,-22.91396 56.42773,-38.57031 7.27869,-7.27869 25.33395,-8.90622 33.57227,-17.14454 11.42789,-11.42789 15.9419,-33.08643 27.85546,-45 12.60288,-12.60289 24.49742,-31.63688 33.47657,-51.66601 A 221.42855,221.42855 0 0 0 438.32617,129.99805 Z m -259.7539,77.85937 c -51.27813,3.62359 -11.42368,24.99399 5.71289,7.85742 0.40685,-0.40686 -5.26699,-6.07378 -5.71289,-7.85742 z M 240,249.28516 c -0.38946,-0.38948 -39.28516,17.12368 -39.28516,17.14257 0,0.45899 18.7986,-3.08375 20,-4.28515 3.22248,-3.22246 9.49312,-5.27239 14.28516,-7.14258 1.33924,-0.33479 6.74158,-3.97328 5,-5.71484 z m 105.1582,13.41601 c -0.65325,-0.0739 -1.64303,0.1848 -3.01562,0.8711 -2.89289,3.77559 -9.53366,4.06732 -11.42774,7.85546 -1.57232,3.14468 -6.43616,3.58718 -7.85742,6.42969 C 322.19672,279.17886 323.96452,280 325,280 c 12.79809,0 24.73101,-16.7815 20.1582,-17.29883 z m 146.14649,28.33985 c -6.39255,17.67608 -23.57095,30.92965 -34.16211,46.8164 -9.76982,14.65467 -19.20136,32.77167 -30,43.57031 -12.71259,12.7126 -65.34931,24.10435 -85.71485,34.28711 -9.81494,4.90749 -22.56276,3.06752 -32.14257,7.85743 -16.77324,8.38662 -52.95365,1.93573 -72.85743,8.57031 -11.32967,3.77654 -102.01963,9.16418 -103.57031,10.71484 -0.40596,0.40595 -0.84838,1.7758 -1.22656,3.4961 a 221.42855,221.42855 0 0 0 139.08398,49.36132 221.42855,221.42855 0 0 0 48.91602,-5.7539 c -0.13936,-3.81567 0.12249,-7.57173 1.79687,-9.2461 13.36574,-13.36577 23.19647,-23.90935 36.42969,-37.14257 8.18907,-8.18907 26.83524,-8.26493 35,-16.42969 9.36046,-9.36046 34.76882,-31.67826 40.71485,-43.57031 9.12151,-18.24303 23.40998,-34.12675 36.42773,-47.14454 9.57524,-9.57523 12.42109,-26.28858 20.61914,-37.26953 a 221.42855,221.42855 0 0 0 0.68555,-8.11718 z"
       transform="matrix(0.26458333,0,0,0.26458333,30.616066,71.348213)"
       id="path1047"
       inkscape:connector-curvature="0" />
    <path
       style="display:inline;opacity:1;fill:url(#linearGradient901);fill-opacity:1;stroke:none;stroke-width:0.99999994px;stroke-linecap:butt;stroke-linejoin:miter;stroke-opacity:1;filter:url(#filter6493)"
       d="m 293.81055,54.113281 c 9.67312,9.939146 20.0571,23.864295 13.33203,37.314453 -1.62437,3.248622 1.01497,8.272128 -1.42774,10.714846 -2.82225,2.82224 -1.162,9.73232 -4.28711,12.85742 -4.47095,4.47095 -2.78391,12.78388 -7.14257,17.14258 -5.4762,5.47616 -5.2367,16.66638 -10.71289,22.14258 -11.66945,11.6694 -20.59998,26.31285 -32.14454,37.85742 -7.81561,7.81561 -35.71289,12.2265 -35.71289,25.71484 0,0.28086 5.4614,-2.60608 5.71289,-2.85742 3.92571,-3.92568 13.42887,-4.14177 17.14454,-7.85742 7.98124,-7.98127 24.2852,-8.57034 34.28515,-13.57031 31.53952,-15.76974 37.01793,-18.44762 60.71485,-42.14454 3.40558,-3.40558 1.80828,-11.47394 4.28515,-16.42773 C 342.10138,126.51209 335,113.33744 335,106.42773 335,90.173078 331.23046,72.471692 323.73438,59.578125 a 221.42855,221.42855 0 0 0 -29.92383,-5.464844 z m -4.52539,16.601563 c -13.79433,13.843956 20.27588,5.068977 0,0 z m -27.8711,6.050781 c -1.83198,0.05823 -3.91263,0.46644 -6.41406,1.091797 -4.16737,0.176844 -2.168,0.761802 -3.57227,3.570312 -2.97117,5.942344 6.83363,33.479266 19.28711,8.572266 1.70415,-3.408299 0.63148,-7.938816 -1.42968,-10 -2.45719,-2.457184 -4.8178,-3.331422 -7.8711,-3.234375 z m 37.15821,28.949215 c -11.58308,3.13841 3.57031,15.91728 3.57031,2.85743 0,-2.20555 -1.06328,-2.23067 -3.57031,-2.85743 z m -161.8711,10.22461 c -0.87431,0.0512 -2.12828,0.63137 -3.84375,1.91797 -4.39389,-0.20296 -7.14258,2.60975 -7.14258,7.14258 0,25.22671 18.1057,-9.47724 10.98633,-9.06055 z m 241.8711,21.91797 c -2.83639,0 -4.81187,2.47923 -6.42969,5.71485 -0.98729,5.99281 -2.14258,9.73821 -2.14258,15.71289 0,24.55944 22.466,-21.42774 8.57227,-21.42774 z M 105,160 c -3.5285,0 -13.677629,14.17977 -9.285156,18.57227 16.673306,16.67327 26.783276,10.53512 42.142576,2.85546 C 134.74452,172.8569 120.22444,184.50962 115.71484,180 111.94718,176.23234 111.22633,160 105,160 Z m 257.14258,7.85742 c -1.2892,6.64154 -5.8174,8.67486 -9.28516,12.14258 -32.32354,32.32354 29.74767,-1.91132 9.28516,-12.14258 z m -209.28516,9.28516 c -32.14043,10.83836 25.96584,12.9829 0,0 z m 269.67188,12.32031 c -1.54594,0.0416 -3.5708,1.44792 -6.10157,4.82227 -1.48766,2.49516 -10.17884,15.536 -6.42773,19.28711 15.26592,15.26591 20.87734,-24.33396 12.5293,-24.10938 z M 204.28516,195 c -5.22395,8.10527 5.78017,7.70691 0,0 z m 67.98828,1.31641 c -1.03168,0.0746 -2.4918,1.11797 -4.41602,3.68359 -2.43791,-4.17751 -5.14878,3.42345 -3.57226,5 8.87001,8.87001 12.45888,-9.00705 7.98828,-8.68359 z m -24.61133,14.41992 c -0.85727,0.004 -2.18936,0.21628 -4.08984,0.6914 -6.22771,0.16101 -11.67011,-1.9002 -15.71485,2.14454 -26.28571,26.28572 29.92046,-2.88264 19.80469,-2.83594 z m 45.91016,7.12109 c -16.11228,10.98614 19.21447,4.80363 0,0 z M 415,219.28516 c -6.33498,12.96903 10.17872,2.54468 0,0 z M 65,231.42773 c -4.679422,0.29972 -2.748355,1.92642 -4.285156,5 -6.78107,13.56216 33.667903,-5 4.285156,-5 z m 312.32227,24.50391 c -0.80078,0.0319 -1.80324,0.18763 -3.03711,0.49609 -10.69165,19.91256 12.40761,0.13056 3.77148,-0.48828 -0.22335,-0.016 -0.46745,-0.0185 -0.73437,-0.008 z m -19.24024,12.48438 c -0.68677,-0.0495 -1.48785,0.20963 -2.36719,0.86914 -3.98577,2.66725 -10.77274,2.26037 -12.85742,6.42968 -0.82159,1.64319 -1.43907,8.57032 -0.71484,8.57032 19.88363,0 20.74688,-15.52271 15.93945,-15.86914 z M 450,268.57227 c -10.69119,20.74038 20.39872,5.09964 0,0 z m 28.84766,22.96679 c -1.1891,-0.0264 -2.69744,0.38583 -4.5625,1.31836 -3.59528,1.79762 -3.46127,4.22968 -7.85743,6.42774 -0.0419,6.84449 -8.57031,10.23137 -8.57031,15 0,3.99125 -17.1211,17.16405 -9.28515,25 13.86558,13.86558 44.30669,-47.43489 30.27539,-47.7461 z m -186.70508,0.60352 c -18.51341,11.96606 8.48712,14.83358 4.28515,6.42969 -1.62338,-3.24681 -3.2414,-2.25456 -4.28515,-6.42969 z m 55.9668,0.25 c -0.43906,-0.0195 -0.99601,0.12202 -1.68165,0.46484 -4.86875,0.71543 -7.01498,1.30014 -9.28515,3.57031 -1.47572,1.47572 -0.007,2.85061 0.71484,3.57227 7.73875,7.73875 14.49606,-7.41909 10.25196,-7.60742 z m -42.04883,14.5039 c -20.37197,0.0905 -47.35691,1.54244 -51.77539,5.96094 -0.81397,0.81396 -20.77442,7.08302 -17.14258,10.71485 3.24216,3.24215 16.37695,-2.14454 20,-2.14454 27.98906,0 51.67942,1.22333 72.14258,-13.57031 -1.15876,-0.57937 -11.00144,-1.01521 -23.22461,-0.96094 z M 96.117188,316.92969 C 89.736383,316.85432 86.289553,317.71729 88.572266,320 101.08475,332.51247 128.1208,328.83564 140,340.71484 144.03798,344.75282 155.73782,332.80951 157.14258,330 160.7929,325.83242 115.2596,317.15579 96.117188,316.92969 Z m 66.240232,20.41211 c -9.7683,0.2131 -5.39896,7.46423 9.07031,1.23047 -3.80973,-0.95244 -6.81608,-1.27965 -9.07031,-1.23047 z m 275.64453,1.22265 c -1.3188,-0.0359 -3.42715,0.57686 -6.57422,2.15039 -6.73943,22.51633 14.63357,-1.93097 6.57422,-2.15039 z m -50.14453,13.57813 c -12.57963,4.47401 9.82137,13.09515 0,0 z m -32.14258,7.14258 c -20.18241,9.69868 16.23829,4.05959 0,0 z m 62.33789,10.32812 c -11.55223,-0.0186 -28.6037,11.26544 -21.625,18.24414 8.5849,8.5849 30.4248,-7.00783 25,-17.85742 -1.04469,-0.26109 -2.17994,-0.3848 -3.375,-0.38672 z m -186.625,46.81445 c -21.24786,10.24313 18.72705,9.36352 0,0 z m 166.72657,3.45508 c -2.75368,0.0126 -4.09008,0.56105 -5.29688,2.97461 C 383.34828,441.87566 426.33308,420 401.42773,420 c -1.28016,-0.0653 -2.35554,-0.12139 -3.27343,-0.11719 z M 231.42773,455 c -14.6335,5.13298 11.99468,15.99292 0,0 z m 37.85743,17.85742 c -20.04858,20.35688 23.91208,5.97804 0,0 z"
       transform="matrix(0.26458333,0,0,0.26458333,30.616066,71.348213)"
       id="path925"
       inkscape:connector-curvature="0" />
    <circle
       r="58.586304"
       cy="143.91963"
       cx="102.24255"
       id="circle1288"
       style="display:none;opacity:0.08999999;fill:url(#linearGradient4567);fill-opacity:1;fill-rule:nonzero;stroke:none;stroke-width:0.54318428;stroke-linecap:round;stroke-linejoin:bevel;stroke-miterlimit:4;stroke-dasharray:none;stroke-dashoffset:0;stroke-opacity:1;paint-order:markers fill stroke;filter:url(#filter1302)" />
    <circle
       r="58.586304"
       cy="143.91963"
       cx="102.24255"
       id="circle5019"
       style="display:none;opacity:0.09500002;fill:url(#linearGradient862);fill-opacity:1;fill-rule:nonzero;stroke:none;stroke-width:0.54318428;stroke-linecap:round;stroke-linejoin:bevel;stroke-miterlimit:4;stroke-dasharray:none;stroke-dashoffset:0;stroke-opacity:1;paint-order:markers fill stroke;filter:url(#filter850)" />
  </g>
</svg>
